<?xml version="1.0" encoding="utf-8"?>
<!-- Generator: Adobe Illustrator 17.1.0, SVG Export Plug-In . SVG Version: 6.00 Build 0)  -->
<!DOCTYPE svg PUBLIC "-//W3C//DTD SVG 1.1//EN" "http://www.w3.org/Graphics/SVG/1.1/DTD/svg11.dtd">
<svg version="1.1" id="Layer_1" xmlns="http://www.w3.org/2000/svg" xmlns:xlink="http://www.w3.org/1999/xlink" x="0px" y="0px"
	 viewBox="0 0 20 20" enable-background="new 0 0 20 20" xml:space="preserve">
<path fill-rule="evenodd" clip-rule="evenodd" fill="#FFFFFF" d="M9.999,0.742c-5.157,0-9.34,4.182-9.34,9.341
	c0,4.126,2.676,7.627,6.388,8.862c0.467,0.086,0.637-0.203,0.637-0.45c0-0.222-0.008-0.809-0.013-1.589
	c-2.598,0.564-3.146-1.252-3.146-1.252c-0.425-1.079-1.037-1.366-1.037-1.366c-0.848-0.58,0.064-0.568,0.064-0.568
	c0.937,0.066,1.431,0.963,1.431,0.963c0.833,1.427,2.186,1.015,2.718,0.776c0.085-0.604,0.326-1.015,0.593-1.249
	c-2.074-0.236-4.254-1.037-4.254-4.616c0-1.02,0.364-1.853,0.961-2.506C4.906,6.851,4.586,5.902,5.094,4.616
	c0,0,0.784-0.251,2.568,0.957c0.745-0.207,1.544-0.311,2.338-0.314c0.793,0.004,1.592,0.107,2.338,0.314
	c1.783-1.209,2.566-0.957,2.566-0.957c0.51,1.286,0.189,2.236,0.093,2.472c0.599,0.653,0.96,1.487,0.96,2.506
	c0,3.588-2.184,4.378-4.265,4.609c0.335,0.288,0.634,0.858,0.634,1.73c0,1.249-0.011,2.256-0.011,2.562
	c0,0.25,0.168,0.54,0.642,0.449c3.708-1.238,6.382-4.736,6.382-8.861C19.34,4.924,15.158,0.742,9.999,0.742z"/>
<g>
</g>
<g>
</g>
<g>
</g>
<g>
</g>
<g>
</g>
<g>
</g>
</svg>
